<?xml version="1.0" encoding="UTF-8" standalone="no"?>
<svg
   viewBox="0 0 128 128"
   width="128"
   height="128"
   version="1.1"
   id="svg13"
   sodipodi:docname="io.github.hihebark.QuranGnome.svg"
   inkscape:version="1.4 (e7c3feb100, 2024-10-09)"
   xmlns:inkscape="http://www.inkscape.org/namespaces/inkscape"
   xmlns:sodipodi="http://sodipodi.sourceforge.net/DTD/sodipodi-0.dtd"
   xmlns="http://www.w3.org/2000/svg"
   xmlns:svg="http://www.w3.org/2000/svg">
  <sodipodi:namedview
     id="namedview13"
     pagecolor="#ffffff"
     bordercolor="#000000"
     borderopacity="0.25"
     inkscape:showpageshadow="2"
     inkscape:pageopacity="0.0"
     inkscape:pagecheckerboard="0"
     inkscape:deskcolor="#d1d1d1"
     inkscape:zoom="4.3199805"
     inkscape:cx="87.03743"
     inkscape:cy="53.935429"
     inkscape:window-width="1920"
     inkscape:window-height="993"
     inkscape:window-x="0"
     inkscape:window-y="26"
     inkscape:window-maximized="1"
     inkscape:current-layer="svg13" />
  <defs
     id="defs4">
    <linearGradient
       id="bg"
       x1="0%"
       y1="0%"
       x2="100%"
       y2="100%">
      <stop
         offset="0%"
         stop-color="#3d5a80"
         id="stop1" />
      <stop
         offset="100%"
         stop-color="#1a2e45"
         id="stop2" />
    </linearGradient>
    <linearGradient
       id="gold"
       x1="0%"
       y1="0%"
       x2="0%"
       y2="100%">
      <stop
         offset="0%"
         stop-color="#f0c040"
         id="stop3" />
      <stop
         offset="100%"
         stop-color="#c8860a"
         id="stop4" />
    </linearGradient>
    <clipPath
       id="a">
      <path
         d="M 148.09,148.09 H 651.9 V 651.9 H 148.09 Z"
         id="path1" />
    </clipPath>
    <clipPath
       id="clipPath2">
      <path
         d="M 148.09,148.09 H 651.9 V 651.9 H 148.09 Z"
         id="path2" />
    </clipPath>
    <clipPath
       id="clipPath3">
      <path
         d="M 148.09,148.09 H 651.9 V 651.9 H 148.09 Z"
         id="path3" />
    </clipPath>
    <clipPath
       id="clipPath8">
      <path
         d="M 148.09,148.09 H 651.9 V 651.9 H 148.09 Z"
         id="path10" />
    </clipPath>
  </defs>
  <!-- Background rounded square -->
  <rect
     width="128"
     height="128"
     rx="28"
     ry="28"
     fill="url(#bg)"
     id="rect4" />
  <g
     id="IconSvg_bgCarrier"
     stroke-width="0"
     transform="matrix(0.22708326,0,0,0.22708326,-26.902649,-26.520708)"
     style="fill:#ffffff" />
  <g
     id="IconSvg_tracerCarrier"
     stroke-linecap="round"
     stroke-linejoin="round"
     stroke="#cccccc"
     stroke-width="0"
     transform="matrix(0.22708326,0,0,0.22708326,-26.902649,-26.520708)"
     style="fill:#ffffff">
    <defs
       id="defs3">
      <clipPath
         id="clipPath13">
        <path
           d="M 148.09,148.09 H 651.9 V 651.9 H 148.09 Z"
           id="path13" />
      </clipPath>
    </defs>
    <path
       d="m 508.66,546.18 c 2.5273,1.6719 3.2188,5.0742 1.5469,7.6016 -1.6719,2.5234 -5.0742,3.2188 -7.6016,1.5469 l -103.09,-68.098 -103.09,68.098 c -2.5273,1.6719 -5.9297,0.98047 -7.6016,-1.5469 -1.6719,-2.52737 -0.98047,-5.9297 1.5469,-7.6016 34.309,-22.664 77.254,-50.23 106.04,-70.043 1.8477,-1.2695 4.3203,-1.3086 6.2227,0 -3.0859,-2.0352 72.402,47.824 106.04,70.043 z"
       id="path4"
       style="fill:#ffffff" />
    <path
       d="m 405.5,463.54 c 59.879,-52.562 130.2,-48.832 155.99,-45.223 l -67.688,-163.35 c -15.273,1.2852 -72.547,8.8906 -88.305,51.109 z m 163.64,-32.73 c -0.31641,-0.0742 -93.145,-22.641 -165,49.004 -1.0078,1.1445 -2.4844,1.8672 -4.125,1.8672 -3.0352,0 -5.4961,-2.4609 -5.4961,-5.4961 v -170.98 c -0.0117,-0.64453 0.0898,-1.3008 0.31641,-1.9453 l 0.008,0.004 c 19.324,-54.246 95.191,-59.145 101.84,-59.473 2.3984,-0.30469 4.7969,1.0078 5.7695,3.3477 l -5.0781,2.1055 5.0664,-2.082 72.844,175.8 c 0.57422,1.1172 0.76562,2.4336 0.46094,3.75 -0.6875,2.957 -3.6445,4.793 -6.6016,4.1055 v -0.008 z"
       id="path5"
       style="fill:#ffffff" />
    <path
       d="m 425.51,413.27 c 36.465,-29.941 77.898,-29.656 96.562,-27.586 l -42.25,-101.96 c -11.289,1.125 -44.707,6.5391 -54.316,31.566 v 97.977 z m 105.38,-20.629 -1.2461,5.3477 c -0.17188,-0.0391 -59.504,-14.477 -105.5,31.289 -1.0078,1.1445 -2.4844,1.8672 -4.125,1.8672 -3.0352,0 -5.4961,-2.4609 -5.4961,-5.4961 v -111.23 c -0.0117,-0.64453 0.0898,-1.3008 0.31641,-1.9453 l 0.008,0.004 c 12.844,-36.051 62.391,-39.672 67.816,-39.961 2.4023,-0.3125 4.8125,1 5.7852,3.3477 l -5.0781,2.1055 5.0664,-2.082 47.34,114.25 c 0.57031,1.1172 0.76953,2.4336 0.46094,3.75 -0.6875,2.957 -3.6445,4.793 -6.5977,4.1055 l 1.2461,-5.3516 z"
       id="path6"
       style="fill:#ffffff" />
    <path
       d="m 395.87,479.81 c -71.859,-71.645 -164.69,-49.078 -165,-49.004 v 0.008 c -2.957,0.6875 -5.9102,-1.1484 -6.6016,-4.1055 -0.30859,-1.3164 -0.11328,-2.6367 0.46094,-3.75 l 72.844,-175.8 5.0664,2.082 -5.0781,-2.1055 c 0.96875,-2.3398 3.3711,-3.6523 5.7695,-3.3477 6.6445,0.32812 82.516,5.2266 101.84,59.473 l 0.008,-0.004 c 0.23047,0.64453 0.33203,1.3008 0.31641,1.9453 v 170.98 c 0,3.0352 -2.4609,5.4961 -5.4961,5.4961 -1.6445,0 -3.1211,-0.72266 -4.125,-1.8672 z M 238.51,418.314 c 25.785,-3.6094 96.113,-7.3398 155.99,45.223 v -157.46 c -15.758,-42.219 -73.031,-49.824 -88.305,-51.109 z"
       id="path7"
       style="fill:#ffffff" />
    <path
       d="M 375.86,429.28 C 329.864,383.514 270.53,397.952 270.36,397.991 l -1.2461,-5.3477 1.2461,5.3516 c -2.957,0.6875 -5.9102,-1.1484 -6.5977,-4.1055 -0.30859,-1.3164 -0.10937,-2.6328 0.46094,-3.75 l 47.34,-114.25 5.0664,2.082 -5.0781,-2.1055 c 0.97266,-2.3438 3.3789,-3.6602 5.7852,-3.3477 5.4258,0.28906 54.973,3.9102 67.816,39.961 l 0.008,-0.004 c 0.23047,0.64453 0.33203,1.3008 0.31641,1.9453 v 111.23 c 0,3.0352 -2.4609,5.4961 -5.4961,5.4961 -1.6445,0 -3.1211,-0.72266 -4.125,-1.8672 z m -97.934,-43.59 c 18.668,-2.0703 60.098,-2.3555 96.562,27.586 v -97.977 c -9.6094,-25.027 -43.027,-30.441 -54.316,-31.566 l -42.25,101.96 z"
       id="path8"
       style="fill:#ffffff" />
    <g
       clip-path="url(#a)"
       id="g7"
       style="fill:#ffffff">
      <path
         d="m 236.37,148.09 h 327.27 c 48.551,0 88.273,39.723 88.273,88.273 v 327.27 c 0,48.551 -39.723,88.273 -88.273,88.273 H 236.37 c -48.551,0 -88.273,-39.723 -88.273,-88.273 v -327.27 c 0,-48.551 39.723,-88.273 88.273,-88.273 z m 0,22.066 h 327.27 c 36.414,0 66.203,29.793 66.203,66.203 v 327.27 c 0,36.414 -29.793,66.203 -66.203,66.203 H 236.37 c -36.414,0 -66.203,-29.793 -66.203,-66.203 v -327.27 c 0,-36.414 29.793,-66.203 66.203,-66.203 z"
         fill-rule="evenodd"
         id="path9"
         style="fill:#ffffff" />
    </g>
  </g>
  <g
     id="IconSvg_iconCarrier"
     transform="matrix(0.22708326,0,0,0.22708326,-26.902649,-26.520708)"
     style="fill:#ffffff">
    <defs
       id="defs8">
      <clipPath
         id="clipPath14">
        <path
           d="M 148.09,148.09 H 651.9 V 651.9 H 148.09 Z"
           id="path14" />
      </clipPath>
    </defs>
    <path
       d="m 508.66,546.18 c 2.5273,1.6719 3.2188,5.0742 1.5469,7.6016 -1.6719,2.5234 -5.0742,3.2188 -7.6016,1.5469 l -103.09,-68.098 -103.09,68.098 c -2.5273,1.6719 -5.9297,0.98047 -7.6016,-1.5469 -1.6719,-2.52737 -0.98047,-5.9297 1.5469,-7.6016 34.309,-22.664 77.254,-50.23 106.04,-70.043 1.8477,-1.2695 4.3203,-1.3086 6.2227,0 -3.0859,-2.0352 72.402,47.824 106.04,70.043 z"
       id="path11"
       style="fill:#ffffff" />
    <path
       d="m 405.5,463.54 c 59.879,-52.562 130.2,-48.832 155.99,-45.223 l -67.688,-163.35 c -15.273,1.2852 -72.547,8.8906 -88.305,51.109 z m 163.64,-32.73 c -0.31641,-0.0742 -93.145,-22.641 -165,49.004 -1.0078,1.1445 -2.4844,1.8672 -4.125,1.8672 -3.0352,0 -5.4961,-2.4609 -5.4961,-5.4961 v -170.98 c -0.0117,-0.64453 0.0898,-1.3008 0.31641,-1.9453 l 0.008,0.004 c 19.324,-54.246 95.191,-59.145 101.84,-59.473 2.3984,-0.30469 4.7969,1.0078 5.7695,3.3477 l -5.0781,2.1055 5.0664,-2.082 72.844,175.8 c 0.57422,1.1172 0.76562,2.4336 0.46094,3.75 -0.6875,2.957 -3.6445,4.793 -6.6016,4.1055 v -0.008 z"
       id="path12"
       style="fill:#ffffff" />
    <path
       d="m 425.51,413.27 c 36.465,-29.941 77.898,-29.656 96.562,-27.586 l -42.25,-101.96 c -11.289,1.125 -44.707,6.5391 -54.316,31.566 v 97.977 z m 105.38,-20.629 -1.2461,5.3477 c -0.17188,-0.0391 -59.504,-14.477 -105.5,31.289 -1.0078,1.1445 -2.4844,1.8672 -4.125,1.8672 -3.0352,0 -5.4961,-2.4609 -5.4961,-5.4961 v -111.23 c -0.0117,-0.64453 0.0898,-1.3008 0.31641,-1.9453 l 0.008,0.004 c 12.844,-36.051 62.391,-39.672 67.816,-39.961 2.4023,-0.3125 4.8125,1 5.7852,3.3477 l -5.0781,2.1055 5.0664,-2.082 47.34,114.25 c 0.57031,1.1172 0.76953,2.4336 0.46094,3.75 -0.6875,2.957 -3.6445,4.793 -6.5977,4.1055 l 1.2461,-5.3516 z"
       id="path15"
       style="fill:#ffffff" />
    <path
       d="m 395.87,479.81 c -71.859,-71.645 -164.69,-49.078 -165,-49.004 v 0.008 c -2.957,0.6875 -5.9102,-1.1484 -6.6016,-4.1055 -0.30859,-1.3164 -0.11328,-2.6367 0.46094,-3.75 l 72.844,-175.8 5.0664,2.082 -5.0781,-2.1055 c 0.96875,-2.3398 3.3711,-3.6523 5.7695,-3.3477 6.6445,0.32812 82.516,5.2266 101.84,59.473 l 0.008,-0.004 c 0.23047,0.64453 0.33203,1.3008 0.31641,1.9453 v 170.98 c 0,3.0352 -2.4609,5.4961 -5.4961,5.4961 -1.6445,0 -3.1211,-0.72266 -4.125,-1.8672 z M 238.51,418.314 c 25.785,-3.6094 96.113,-7.3398 155.99,45.223 v -157.46 c -15.758,-42.219 -73.031,-49.824 -88.305,-51.109 z"
       id="path16"
       style="fill:#ffffff" />
    <path
       d="M 375.86,429.28 C 329.864,383.514 270.53,397.952 270.36,397.991 l -1.2461,-5.3477 1.2461,5.3516 c -2.957,0.6875 -5.9102,-1.1484 -6.5977,-4.1055 -0.30859,-1.3164 -0.10937,-2.6328 0.46094,-3.75 l 47.34,-114.25 5.0664,2.082 -5.0781,-2.1055 c 0.97266,-2.3438 3.3789,-3.6602 5.7852,-3.3477 5.4258,0.28906 54.973,3.9102 67.816,39.961 l 0.008,-0.004 c 0.23047,0.64453 0.33203,1.3008 0.31641,1.9453 v 111.23 c 0,3.0352 -2.4609,5.4961 -5.4961,5.4961 -1.6445,0 -3.1211,-0.72266 -4.125,-1.8672 z m -97.934,-43.59 c 18.668,-2.0703 60.098,-2.3555 96.562,27.586 v -97.977 c -9.6094,-25.027 -43.027,-30.441 -54.316,-31.566 l -42.25,101.96 z"
       id="path17"
       style="fill:#ffffff" />
    <g
       clip-path="url(#a)"
       id="g14"
       style="fill:#ffffff">
      <path
         d="m 236.37,148.09 h 327.27 c 48.551,0 88.273,39.723 88.273,88.273 v 327.27 c 0,48.551 -39.723,88.273 -88.273,88.273 H 236.37 c -48.551,0 -88.273,-39.723 -88.273,-88.273 v -327.27 c 0,-48.551 39.723,-88.273 88.273,-88.273 z m 0,22.066 h 327.27 c 36.414,0 66.203,29.793 66.203,66.203 v 327.27 c 0,36.414 -29.793,66.203 -66.203,66.203 H 236.37 c -36.414,0 -66.203,-29.793 -66.203,-66.203 v -327.27 c 0,-36.414 29.793,-66.203 66.203,-66.203 z"
         fill-rule="evenodd"
         id="path18"
         style="fill:#ffffff" />
    </g>
  </g>
  <!-- Book body -->
  <!-- Book spine -->
  <!-- Spine detail line -->
  <!-- Page lines -->
  <!-- Crescent moon -->
  <!-- Star next to crescent -->
</svg>
